<mxfile host="app.diagrams.net" modified="2020-12-27T11:32:56.073Z" agent="5.0 (Windows NT 10.0; Win64; x64) AppleWebKit/537.36 (KHTML, like Gecko) Chrome/87.0.4280.88 Safari/537.36 Edg/87.0.664.66" etag="9N5WbFZi8_8Hf2jYQI__" version="14.1.2" type="github">
  <diagram id="5YX6uhkvyJYAJJAbS7bX" name="Page-1">
    <mxGraphModel dx="1171" dy="640" grid="1" gridSize="10" guides="1" tooltips="1" connect="1" arrows="1" fold="1" page="1" pageScale="1" pageWidth="850" pageHeight="1100" math="0" shadow="0">
      <root>
        <mxCell id="0" />
        <mxCell id="1" parent="0" />
        <mxCell id="KYAVkuJgPmjabkFd_LSZ-15" value="" style="rounded=0;whiteSpace=wrap;html=1;fontSize=20;strokeWidth=3;" vertex="1" parent="1">
          <mxGeometry x="255" y="150" width="380" height="210" as="geometry" />
        </mxCell>
        <mxCell id="KYAVkuJgPmjabkFd_LSZ-5" style="edgeStyle=orthogonalEdgeStyle;rounded=0;orthogonalLoop=1;jettySize=auto;html=1;entryX=0.5;entryY=1;entryDx=0;entryDy=0;" edge="1" parent="1" source="KYAVkuJgPmjabkFd_LSZ-1" target="KYAVkuJgPmjabkFd_LSZ-2">
          <mxGeometry relative="1" as="geometry" />
        </mxCell>
        <mxCell id="KYAVkuJgPmjabkFd_LSZ-9" style="edgeStyle=orthogonalEdgeStyle;rounded=0;orthogonalLoop=1;jettySize=auto;html=1;fontSize=22;" edge="1" parent="1" source="KYAVkuJgPmjabkFd_LSZ-1" target="KYAVkuJgPmjabkFd_LSZ-10">
          <mxGeometry relative="1" as="geometry">
            <mxPoint x="445" y="270" as="targetPoint" />
          </mxGeometry>
        </mxCell>
        <mxCell id="KYAVkuJgPmjabkFd_LSZ-11" style="edgeStyle=orthogonalEdgeStyle;rounded=0;orthogonalLoop=1;jettySize=auto;html=1;fontSize=20;" edge="1" parent="1" source="KYAVkuJgPmjabkFd_LSZ-1">
          <mxGeometry relative="1" as="geometry">
            <mxPoint x="445" y="270" as="targetPoint" />
          </mxGeometry>
        </mxCell>
        <mxCell id="KYAVkuJgPmjabkFd_LSZ-1" value="" style="rounded=0;whiteSpace=wrap;html=1;fillColor=#d5e8d4;strokeColor=#82b366;" vertex="1" parent="1">
          <mxGeometry x="270" y="160" width="350" height="70" as="geometry" />
        </mxCell>
        <mxCell id="KYAVkuJgPmjabkFd_LSZ-3" style="edgeStyle=orthogonalEdgeStyle;rounded=0;orthogonalLoop=1;jettySize=auto;html=1;entryX=0.5;entryY=0;entryDx=0;entryDy=0;" edge="1" parent="1" source="KYAVkuJgPmjabkFd_LSZ-2" target="KYAVkuJgPmjabkFd_LSZ-1">
          <mxGeometry relative="1" as="geometry" />
        </mxCell>
        <mxCell id="KYAVkuJgPmjabkFd_LSZ-2" value="Web browser" style="text;html=1;strokeColor=none;fillColor=none;align=center;verticalAlign=middle;whiteSpace=wrap;rounded=0;fontSize=22;" vertex="1" parent="1">
          <mxGeometry x="315" y="70" width="260" height="40" as="geometry" />
        </mxCell>
        <mxCell id="KYAVkuJgPmjabkFd_LSZ-6" value="Tomcat Container" style="text;html=1;strokeColor=none;fillColor=none;align=center;verticalAlign=middle;whiteSpace=wrap;rounded=0;fontSize=22;" vertex="1" parent="1">
          <mxGeometry x="330" y="185" width="220" height="20" as="geometry" />
        </mxCell>
        <mxCell id="KYAVkuJgPmjabkFd_LSZ-8" style="edgeStyle=orthogonalEdgeStyle;rounded=0;orthogonalLoop=1;jettySize=auto;html=1;entryX=0.5;entryY=1;entryDx=0;entryDy=0;fontSize=22;" edge="1" parent="1" source="KYAVkuJgPmjabkFd_LSZ-7" target="KYAVkuJgPmjabkFd_LSZ-1">
          <mxGeometry relative="1" as="geometry" />
        </mxCell>
        <mxCell id="KYAVkuJgPmjabkFd_LSZ-14" style="edgeStyle=orthogonalEdgeStyle;rounded=0;orthogonalLoop=1;jettySize=auto;html=1;entryX=0;entryY=0.5;entryDx=0;entryDy=0;entryPerimeter=0;fontSize=20;" edge="1" parent="1" source="KYAVkuJgPmjabkFd_LSZ-7" target="KYAVkuJgPmjabkFd_LSZ-12">
          <mxGeometry relative="1" as="geometry" />
        </mxCell>
        <mxCell id="KYAVkuJgPmjabkFd_LSZ-7" value="" style="rounded=1;whiteSpace=wrap;html=1;fontSize=22;fillColor=#fff2cc;strokeColor=#d6b656;" vertex="1" parent="1">
          <mxGeometry x="385" y="270" width="120" height="60" as="geometry" />
        </mxCell>
        <mxCell id="KYAVkuJgPmjabkFd_LSZ-10" value="Java class" style="text;html=1;strokeColor=none;fillColor=none;align=center;verticalAlign=middle;whiteSpace=wrap;rounded=0;fontSize=20;" vertex="1" parent="1">
          <mxGeometry x="427.5" y="290" width="35" height="20" as="geometry" />
        </mxCell>
        <mxCell id="KYAVkuJgPmjabkFd_LSZ-12" value="" style="shape=cylinder3;whiteSpace=wrap;html=1;boundedLbl=1;backgroundOutline=1;size=15;fontSize=20;fillColor=#e1d5e7;strokeColor=#9673a6;" vertex="1" parent="1">
          <mxGeometry x="650" y="260" width="90" height="80" as="geometry" />
        </mxCell>
        <mxCell id="KYAVkuJgPmjabkFd_LSZ-13" value="MySql" style="text;html=1;strokeColor=none;fillColor=none;align=center;verticalAlign=middle;whiteSpace=wrap;rounded=0;fontSize=20;" vertex="1" parent="1">
          <mxGeometry x="675" y="300" width="40" height="20" as="geometry" />
        </mxCell>
        <mxCell id="KYAVkuJgPmjabkFd_LSZ-16" value="Server" style="text;html=1;strokeColor=none;fillColor=none;align=center;verticalAlign=middle;whiteSpace=wrap;rounded=0;fontSize=20;" vertex="1" parent="1">
          <mxGeometry x="270" y="330" width="40" height="20" as="geometry" />
        </mxCell>
      </root>
    </mxGraphModel>
  </diagram>
</mxfile>
